<svg id="visual" viewBox="0 0 960 540" width="960" height="540" xmlns="http://www.w3.org/2000/svg" xmlns:xlink="http://www.w3.org/1999/xlink" version="1.1"><rect x="0" y="0" width="960" height="540" fill="#000000"></rect><path d="M0 185L22.8 198.7C45.7 212.3 91.3 239.7 137 256.2C182.7 272.7 228.3 278.3 274 276.7C319.7 275 365.3 266 411.2 247.8C457 229.7 503 202.3 548.8 181.5C594.7 160.7 640.3 146.3 686 167.3C731.7 188.3 777.3 244.7 823 244.3C868.7 244 914.3 187 937.2 158.5L960 130L960 0L937.2 0C914.3 0 868.7 0 823 0C777.3 0 731.7 0 686 0C640.3 0 594.7 0 548.8 0C503 0 457 0 411.2 0C365.3 0 319.7 0 274 0C228.3 0 182.7 0 137 0C91.3 0 45.7 0 22.8 0L0 0Z" fill="#FFE2E2" stroke-linecap="round" stroke-linejoin="miter"></path></svg>